<?xml version="1.0" encoding="utf-8"?>
<!-- Generator: Adobe Illustrator 16.0.0, SVG Export Plug-In . SVG Version: 6.00 Build 0)  -->
<!DOCTYPE svg PUBLIC "-//W3C//DTD SVG 1.1//EN" "http://www.w3.org/Graphics/SVG/1.1/DTD/svg11.dtd">
<svg version="1.1" id="Layer_1" xmlns="http://www.w3.org/2000/svg" xmlns:xlink="http://www.w3.org/1999/xlink" x="0px" y="0px"
	 width="400px" height="400px" viewBox="0 0 400 400" enable-background="new 0 0 400 400" xml:space="preserve">
<path fill="none" stroke="#231F20" stroke-miterlimit="10" d="M103.974,125.936c0,0,24.219,0.753,29.719,23.753
	c4.891,20.453,8.281,33.247,21.781,54.247s32.5,46,75.5,52.5s71.5,19,71.5,19"/>
<path fill="none" stroke="#231F20" stroke-miterlimit="10" d="M103.974,135.936c0,0,17.25-4.75,22.75,18.25
	c4.891,20.453-7,33.25,6.5,54.25s36.054,45.535,78.5,55c37,8.25,48,12,48,12"/>
<path fill="none" stroke="#231F20" stroke-miterlimit="10" d="M103.974,144.699c0,0,16.823-2.665,20.5,11
	c2.969,11.034-13.754,20.039-2.754,48.039c9.128,23.236,24.021,44.24,65.753,54.961c27.25,7,48.65,16.736,48.65,16.736"/>
<path fill="none" stroke="#231F20" stroke-miterlimit="10" d="M104.801,138.436c0,0,15.408-3.334,15.408,10.333
	c0,11.427-24.385,14.326-13.385,42.326c9.128,23.236,16.094,44.17,52.81,66.721c17.834,10.953,45.167,17.62,45.167,17.62"/>
<path fill="none" stroke="#231F20" stroke-miterlimit="10" d="M128.209,136.102c0,0,10,1.667,10,15.334
	c0,11.426-38,2.333-33.93,42.673c2.506,24.839,10.214,34.442,46.93,56.993c17.834,10.953,54.672,24.334,54.672,24.334"/>
<path fill="none" stroke="#231F20" stroke-miterlimit="10" d="M147.711,162.422c0,0,6.433,2.521,4.178,16
	c-2.845,17-51.178-21.333-47.74,23.667c1.902,24.893,6.146,34.685,38.896,57c17.295,11.785,32.333,16.347,32.333,16.347"/>
<path fill="none" stroke="#231F20" stroke-miterlimit="10" d="M162.673,188.872c0,0,5.583,3.421,4.433,15.243
	c-1.669,17.154-66.438-38.667-62.999,6.333c1.901,24.893,4.918,27.352,37.666,49.667c17.295,11.785,37.333,15.32,37.333,15.32"/>
<path fill="none" stroke="#231F20" stroke-miterlimit="10" d="M163.918,232.119c0,0,11.908,6.742,3,17.106
	c-16.833,19.585-41.15-70.539-59.707-29.399c-4.954,10.984-8.662,21.052,24.086,43.367c17.295,11.785,21.976,12.242,21.976,12.242"
	/>
</svg>
